<mxfile compressed="false" host="Electron" modified="2020-11-16T17:48:41.211Z" agent="5.0 (Windows NT 10.0; Win64; x64) AppleWebKit/537.36 (KHTML, like Gecko) draw.io/13.7.9 Chrome/85.0.4183.121 Electron/10.1.3 Safari/537.36" etag="lneApL8s5jzQ4AgLpu0E" version="13.7.9" type="device">
  <diagram id="njPW_tboIVseyxhEBPLP" name="Page-1">
    <mxGraphModel dx="813" dy="470" grid="1" gridSize="10" guides="1" tooltips="1" connect="1" arrows="1" fold="1" page="1" pageScale="1" pageWidth="850" pageHeight="1100" math="0" shadow="0">
      <root>
        <mxCell id="0" />
        <mxCell id="1" parent="0" />
        <mxCell id="7mEc8ZcOD99qMGuMx6PS-13" value="" style="group" vertex="1" connectable="0" parent="1">
          <mxGeometry x="80" y="60" width="300" height="236" as="geometry" />
        </mxCell>
        <mxCell id="7mEc8ZcOD99qMGuMx6PS-1" value="Event" style="swimlane;fontStyle=1;align=center;verticalAlign=top;childLayout=stackLayout;horizontal=1;startSize=26;horizontalStack=0;resizeParent=1;resizeParentMax=0;resizeLast=0;collapsible=1;marginBottom=0;" vertex="1" parent="7mEc8ZcOD99qMGuMx6PS-13">
          <mxGeometry y="20" width="240" height="138" as="geometry">
            <mxRectangle x="80" y="80" width="110" height="26" as="alternateBounds" />
          </mxGeometry>
        </mxCell>
        <mxCell id="7mEc8ZcOD99qMGuMx6PS-2" value="+ name: std::string" style="text;strokeColor=none;fillColor=none;align=left;verticalAlign=top;spacingLeft=4;spacingRight=4;overflow=hidden;rotatable=0;points=[[0,0.5],[1,0.5]];portConstraint=eastwest;" vertex="1" parent="7mEc8ZcOD99qMGuMx6PS-1">
          <mxGeometry y="26" width="240" height="26" as="geometry" />
        </mxCell>
        <mxCell id="7mEc8ZcOD99qMGuMx6PS-3" value="+ data: std::shared_ptr&lt;void&gt;" style="text;strokeColor=none;fillColor=none;align=left;verticalAlign=top;spacingLeft=4;spacingRight=4;overflow=hidden;rotatable=0;points=[[0,0.5],[1,0.5]];portConstraint=eastwest;" vertex="1" parent="7mEc8ZcOD99qMGuMx6PS-1">
          <mxGeometry y="52" width="240" height="26" as="geometry" />
        </mxCell>
        <mxCell id="7mEc8ZcOD99qMGuMx6PS-6" value="" style="line;strokeWidth=1;fillColor=none;align=left;verticalAlign=middle;spacingTop=-1;spacingLeft=3;spacingRight=3;rotatable=0;labelPosition=right;points=[];portConstraint=eastwest;" vertex="1" parent="7mEc8ZcOD99qMGuMx6PS-1">
          <mxGeometry y="78" width="240" height="8" as="geometry" />
        </mxCell>
        <mxCell id="7mEc8ZcOD99qMGuMx6PS-7" value="+ getData&lt;T&gt;(): T" style="text;strokeColor=none;fillColor=none;align=left;verticalAlign=top;spacingLeft=4;spacingRight=4;overflow=hidden;rotatable=0;points=[[0,0.5],[1,0.5]];portConstraint=eastwest;" vertex="1" parent="7mEc8ZcOD99qMGuMx6PS-1">
          <mxGeometry y="86" width="240" height="26" as="geometry" />
        </mxCell>
        <mxCell id="7mEc8ZcOD99qMGuMx6PS-8" value="+ operator &lt;&lt; (T&amp;, Event&amp;) : T&amp; {friend}" style="text;strokeColor=none;fillColor=none;align=left;verticalAlign=top;spacingLeft=4;spacingRight=4;overflow=hidden;rotatable=0;points=[[0,0.5],[1,0.5]];portConstraint=eastwest;" vertex="1" parent="7mEc8ZcOD99qMGuMx6PS-1">
          <mxGeometry y="112" width="240" height="26" as="geometry" />
        </mxCell>
        <mxCell id="7mEc8ZcOD99qMGuMx6PS-12" value="T : NotPointer" style="rounded=0;whiteSpace=wrap;html=1;dashed=1;" vertex="1" parent="7mEc8ZcOD99qMGuMx6PS-13">
          <mxGeometry x="190" width="100" height="32" as="geometry" />
        </mxCell>
      </root>
    </mxGraphModel>
  </diagram>
</mxfile>
